<?xml version="1.0" standalone="no"?>
<!DOCTYPE svg PUBLIC "-//W3C//DTD SVG 20010904//EN"
 "http://www.w3.org/TR/2001/REC-SVG-20010904/DTD/svg10.dtd">
<svg version="1.0" xmlns="http://www.w3.org/2000/svg"
 width="236.000000pt" height="236.000000pt" viewBox="0 0 236.000000 236.000000"
 preserveAspectRatio="xMidYMid meet">

<g transform="translate(0.000000,236.000000) scale(0.100000,-0.100000)"
fill="#000000" stroke="none">
<path d="M0 1185 l0 -1175 1175 0 1175 0 0 1175 0 1175 -1175 0 -1175 0 0
-1175z m1150 595 c0 -291 -1 -530 -3 -530 -1 0 -241 239 -532 530 l-530 530
533 0 532 0 0 -530z m1110 527 c0 -1 -238 -241 -530 -532 l-530 -530 0 533 0
532 530 0 c292 0 530 -1 530 -3z m-1675 -567 l530 -530 -533 0 -532 0 0 530
c0 292 1 530 3 530 1 0 241 -238 532 -530z m1715 0 l0 -530 -532 0 -533 0 530
530 c291 292 531 530 532 530 2 0 3 -238 3 -530z m-1190 -583 c0 -1 -239 -241
-530 -532 l-530 -530 0 533 0 532 530 0 c292 0 530 -1 530 -3z m1190 -527 c0
-292 -1 -530 -3 -530 -1 0 -241 239 -532 530 l-530 530 533 0 532 0 0 -530z
m-1150 -40 l0 -530 -532 0 -533 0 530 530 c291 292 531 530 532 530 2 0 3
-238 3 -530z m585 0 l530 -530 -533 0 -532 0 0 530 c0 292 1 530 3 530 1 0
241 -238 532 -530z" fill-opacity="0.4"/>
</g>
</svg>
